<mxfile host="65bd71144e">
    <diagram id="_qm1-AJe0AePabwUvn4U" name="Page-1">
        <mxGraphModel dx="1030" dy="456" grid="0" gridSize="10" guides="1" tooltips="1" connect="1" arrows="1" fold="1" page="1" pageScale="1" pageWidth="827" pageHeight="583" background="#ffffff" math="0" shadow="0">
            <root>
                <object label="" id="0">
                    <mxCell/>
                </object>
                <mxCell id="1" parent="0"/>
                <mxCell id="160" style="edgeStyle=none;html=1;entryX=0;entryY=0.447;entryDx=0;entryDy=0;entryPerimeter=0;strokeColor=#000000;exitX=1;exitY=0.5;exitDx=0;exitDy=0;" parent="1" source="211" target="155" edge="1">
                    <mxGeometry relative="1" as="geometry">
                        <mxPoint x="140" y="221.78965256797585" as="sourcePoint"/>
                    </mxGeometry>
                </mxCell>
                <mxCell id="89" value="Data Source I" style="shape=cylinder3;whiteSpace=wrap;html=1;boundedLbl=1;backgroundOutline=1;size=15;fillColor=#E6E6E6;strokeColor=#000000;labelPosition=center;verticalLabelPosition=bottom;align=center;verticalAlign=top;fontColor=#000000;" parent="1" vertex="1">
                    <mxGeometry x="432" y="16" width="217" height="266" as="geometry"/>
                </mxCell>
                <object label="Countries" id="94">
                    <mxCell style="shape=table;startSize=30;container=1;collapsible=1;childLayout=tableLayout;fixedRows=1;rowLines=0;fontStyle=1;align=center;resizeLast=1;fontColor=#000000;strokeColor=#000000;fillColor=#E6E6E6;" parent="1" vertex="1">
                        <mxGeometry x="473.5" y="50" width="128" height="210" as="geometry"/>
                    </mxCell>
                </object>
                <mxCell id="95" value="" style="shape=partialRectangle;collapsible=0;dropTarget=0;pointerEvents=0;fillColor=none;top=0;left=0;bottom=1;right=0;points=[[0,0.5],[1,0.5]];portConstraint=eastwest;" parent="94" vertex="1">
                    <mxGeometry y="30" width="128" height="30" as="geometry"/>
                </mxCell>
                <mxCell id="96" value="PK" style="shape=partialRectangle;connectable=0;fillColor=none;top=0;left=0;bottom=0;right=0;fontStyle=1;overflow=hidden;fontColor=#000000;fontSize=12;" parent="95" vertex="1">
                    <mxGeometry width="30" height="30" as="geometry">
                        <mxRectangle width="30" height="30" as="alternateBounds"/>
                    </mxGeometry>
                </mxCell>
                <mxCell id="97" value="iso3" style="shape=partialRectangle;connectable=0;fillColor=none;top=0;left=0;bottom=0;right=0;align=left;spacingLeft=6;fontStyle=5;overflow=hidden;fontColor=#000000;fontSize=12;" parent="95" vertex="1">
                    <mxGeometry x="30" width="98" height="30" as="geometry">
                        <mxRectangle width="98" height="30" as="alternateBounds"/>
                    </mxGeometry>
                </mxCell>
                <mxCell id="98" value="" style="shape=partialRectangle;collapsible=0;dropTarget=0;pointerEvents=0;fillColor=none;top=0;left=0;bottom=0;right=0;points=[[0,0.5],[1,0.5]];portConstraint=eastwest;" parent="94" vertex="1">
                    <mxGeometry y="60" width="128" height="30" as="geometry"/>
                </mxCell>
                <mxCell id="99" value="" style="shape=partialRectangle;connectable=0;fillColor=none;top=0;left=0;bottom=0;right=0;editable=1;overflow=hidden;" parent="98" vertex="1">
                    <mxGeometry width="30" height="30" as="geometry">
                        <mxRectangle width="30" height="30" as="alternateBounds"/>
                    </mxGeometry>
                </mxCell>
                <mxCell id="100" value="name" style="shape=partialRectangle;connectable=0;fillColor=none;top=0;left=0;bottom=0;right=0;align=left;spacingLeft=6;overflow=hidden;fontColor=#000000;" parent="98" vertex="1">
                    <mxGeometry x="30" width="98" height="30" as="geometry">
                        <mxRectangle width="98" height="30" as="alternateBounds"/>
                    </mxGeometry>
                </mxCell>
                <mxCell id="189" value="" style="shape=partialRectangle;collapsible=0;dropTarget=0;pointerEvents=0;fillColor=none;top=0;left=0;bottom=0;right=0;points=[[0,0.5],[1,0.5]];portConstraint=eastwest;" vertex="1" parent="94">
                    <mxGeometry y="90" width="128" height="30" as="geometry"/>
                </mxCell>
                <mxCell id="190" value="" style="shape=partialRectangle;connectable=0;fillColor=none;top=0;left=0;bottom=0;right=0;editable=1;overflow=hidden;" vertex="1" parent="189">
                    <mxGeometry width="30" height="30" as="geometry">
                        <mxRectangle width="30" height="30" as="alternateBounds"/>
                    </mxGeometry>
                </mxCell>
                <mxCell id="191" value="region" style="shape=partialRectangle;connectable=0;fillColor=none;top=0;left=0;bottom=0;right=0;align=left;spacingLeft=6;overflow=hidden;fontColor=#000000;" vertex="1" parent="189">
                    <mxGeometry x="30" width="98" height="30" as="geometry">
                        <mxRectangle width="98" height="30" as="alternateBounds"/>
                    </mxGeometry>
                </mxCell>
                <mxCell id="192" value="" style="shape=partialRectangle;collapsible=0;dropTarget=0;pointerEvents=0;fillColor=none;top=0;left=0;bottom=0;right=0;points=[[0,0.5],[1,0.5]];portConstraint=eastwest;" vertex="1" parent="94">
                    <mxGeometry y="120" width="128" height="30" as="geometry"/>
                </mxCell>
                <mxCell id="193" value="" style="shape=partialRectangle;connectable=0;fillColor=none;top=0;left=0;bottom=0;right=0;editable=1;overflow=hidden;" vertex="1" parent="192">
                    <mxGeometry width="30" height="30" as="geometry">
                        <mxRectangle width="30" height="30" as="alternateBounds"/>
                    </mxGeometry>
                </mxCell>
                <mxCell id="194" value="subregion" style="shape=partialRectangle;connectable=0;fillColor=none;top=0;left=0;bottom=0;right=0;align=left;spacingLeft=6;overflow=hidden;fontColor=#000000;" vertex="1" parent="192">
                    <mxGeometry x="30" width="98" height="30" as="geometry">
                        <mxRectangle width="98" height="30" as="alternateBounds"/>
                    </mxGeometry>
                </mxCell>
                <mxCell id="199" value="" style="shape=partialRectangle;collapsible=0;dropTarget=0;pointerEvents=0;fillColor=none;top=0;left=0;bottom=0;right=0;points=[[0,0.5],[1,0.5]];portConstraint=eastwest;" vertex="1" parent="94">
                    <mxGeometry y="150" width="128" height="30" as="geometry"/>
                </mxCell>
                <mxCell id="200" value="" style="shape=partialRectangle;connectable=0;fillColor=none;top=0;left=0;bottom=0;right=0;editable=1;overflow=hidden;" vertex="1" parent="199">
                    <mxGeometry width="30" height="30" as="geometry">
                        <mxRectangle width="30" height="30" as="alternateBounds"/>
                    </mxGeometry>
                </mxCell>
                <mxCell id="201" value="latitude" style="shape=partialRectangle;connectable=0;fillColor=none;top=0;left=0;bottom=0;right=0;align=left;spacingLeft=6;overflow=hidden;fontColor=#000000;" vertex="1" parent="199">
                    <mxGeometry x="30" width="98" height="30" as="geometry">
                        <mxRectangle width="98" height="30" as="alternateBounds"/>
                    </mxGeometry>
                </mxCell>
                <mxCell id="202" value="" style="shape=partialRectangle;collapsible=0;dropTarget=0;pointerEvents=0;fillColor=none;top=0;left=0;bottom=0;right=0;points=[[0,0.5],[1,0.5]];portConstraint=eastwest;" vertex="1" parent="94">
                    <mxGeometry y="180" width="128" height="30" as="geometry"/>
                </mxCell>
                <mxCell id="203" value="" style="shape=partialRectangle;connectable=0;fillColor=none;top=0;left=0;bottom=0;right=0;editable=1;overflow=hidden;" vertex="1" parent="202">
                    <mxGeometry width="30" height="30" as="geometry">
                        <mxRectangle width="30" height="30" as="alternateBounds"/>
                    </mxGeometry>
                </mxCell>
                <mxCell id="204" value="longitude" style="shape=partialRectangle;connectable=0;fillColor=none;top=0;left=0;bottom=0;right=0;align=left;spacingLeft=6;overflow=hidden;fontColor=#000000;" vertex="1" parent="202">
                    <mxGeometry x="30" width="98" height="30" as="geometry">
                        <mxRectangle width="98" height="30" as="alternateBounds"/>
                    </mxGeometry>
                </mxCell>
                <mxCell id="169" style="edgeStyle=none;html=1;entryX=1;entryY=0.404;entryDx=0;entryDy=0;entryPerimeter=0;strokeColor=#000000;dashed=1;endArrow=none;endFill=0;" parent="1" source="120" target="89" edge="1">
                    <mxGeometry relative="1" as="geometry"/>
                </mxCell>
                <mxCell id="120" value="Mapping I" style="rounded=0;whiteSpace=wrap;html=1;labelBackgroundColor=none;sketch=0;fillColor=#f5f5f5;fontColor=#333333;strokeColor=#000000;labelPosition=center;verticalLabelPosition=bottom;align=center;verticalAlign=top;" parent="1" vertex="1">
                    <mxGeometry x="677.5" y="44" width="125.5" height="155.5" as="geometry"/>
                </mxCell>
                <object label="Countries" latitude="longitude" id="121">
                    <mxCell style="swimlane;childLayout=stackLayout;horizontal=1;startSize=30;horizontalStack=0;rounded=1;fontSize=14;fontStyle=0;strokeWidth=2;resizeParent=0;resizeLast=1;shadow=0;dashed=0;align=center;fontColor=#000000;fillColor=#E6E6E6;strokeColor=#666666;" parent="1" vertex="1">
                        <mxGeometry x="693" y="56" width="99" height="138.5" as="geometry"/>
                    </mxCell>
                </object>
                <mxCell id="122" value="name&#10;iso3&#10;region&#10;subregion&#10;states&#10;latitude&#10;longitude" style="align=left;strokeColor=none;fillColor=none;spacingLeft=4;fontSize=12;verticalAlign=top;resizable=0;rotatable=0;part=1;fontColor=#000000;" parent="121" vertex="1">
                    <mxGeometry y="30" width="99" height="108.5" as="geometry"/>
                </mxCell>
                <mxCell id="178" style="edgeStyle=none;html=1;entryX=0;entryY=0.5;entryDx=0;entryDy=0;dashed=1;endArrow=none;endFill=0;strokeColor=#000000;" edge="1" parent="1" source="128" target="171">
                    <mxGeometry relative="1" as="geometry"/>
                </mxCell>
                <mxCell id="128" value="Data Source II" style="shape=cylinder3;whiteSpace=wrap;html=1;boundedLbl=1;backgroundOutline=1;size=15;fillColor=#E6E6E6;strokeColor=#000000;labelPosition=center;verticalLabelPosition=bottom;align=center;verticalAlign=top;fontColor=#000000;" parent="1" vertex="1">
                    <mxGeometry x="432" y="314.5" width="219" height="239" as="geometry"/>
                </mxCell>
                <mxCell id="137" value="TBL_STATES" style="shape=table;startSize=30;container=1;collapsible=1;childLayout=tableLayout;fixedRows=1;rowLines=0;fontStyle=1;align=center;resizeLast=1;fontColor=#000000;strokeColor=#000000;fillColor=#E6E6E6;" parent="1" vertex="1">
                    <mxGeometry x="451" y="351" width="177" height="182.5" as="geometry"/>
                </mxCell>
                <mxCell id="138" value="" style="shape=partialRectangle;collapsible=0;dropTarget=0;pointerEvents=0;fillColor=none;top=0;left=0;bottom=1;right=0;points=[[0,0.5],[1,0.5]];portConstraint=eastwest;" parent="137" vertex="1">
                    <mxGeometry y="30" width="177" height="30" as="geometry"/>
                </mxCell>
                <mxCell id="139" value="PK" style="shape=partialRectangle;connectable=0;fillColor=none;top=0;left=0;bottom=0;right=0;fontStyle=1;overflow=hidden;fontColor=#000000;" parent="138" vertex="1">
                    <mxGeometry width="30" height="30" as="geometry">
                        <mxRectangle width="30" height="30" as="alternateBounds"/>
                    </mxGeometry>
                </mxCell>
                <mxCell id="140" value="ID" style="shape=partialRectangle;connectable=0;fillColor=none;top=0;left=0;bottom=0;right=0;align=left;spacingLeft=6;fontStyle=5;overflow=hidden;fontColor=#000000;" parent="138" vertex="1">
                    <mxGeometry x="30" width="147" height="30" as="geometry">
                        <mxRectangle width="147" height="30" as="alternateBounds"/>
                    </mxGeometry>
                </mxCell>
                <mxCell id="141" value="" style="shape=partialRectangle;collapsible=0;dropTarget=0;pointerEvents=0;fillColor=none;top=0;left=0;bottom=0;right=0;points=[[0,0.5],[1,0.5]];portConstraint=eastwest;fontColor=#000000;" parent="137" vertex="1">
                    <mxGeometry y="60" width="177" height="30" as="geometry"/>
                </mxCell>
                <mxCell id="142" value="" style="shape=partialRectangle;connectable=0;fillColor=none;top=0;left=0;bottom=0;right=0;editable=1;overflow=hidden;fontColor=#000000;" parent="141" vertex="1">
                    <mxGeometry width="30" height="30" as="geometry">
                        <mxRectangle width="30" height="30" as="alternateBounds"/>
                    </mxGeometry>
                </mxCell>
                <mxCell id="143" value="COUNTRY_CODE" style="shape=partialRectangle;connectable=0;fillColor=none;top=0;left=0;bottom=0;right=0;align=left;spacingLeft=6;overflow=hidden;fontColor=#000000;" parent="141" vertex="1">
                    <mxGeometry x="30" width="147" height="30" as="geometry">
                        <mxRectangle width="147" height="30" as="alternateBounds"/>
                    </mxGeometry>
                </mxCell>
                <mxCell id="144" value="" style="shape=partialRectangle;collapsible=0;dropTarget=0;pointerEvents=0;fillColor=none;top=0;left=0;bottom=0;right=0;points=[[0,0.5],[1,0.5]];portConstraint=eastwest;" parent="137" vertex="1">
                    <mxGeometry y="90" width="177" height="30" as="geometry"/>
                </mxCell>
                <mxCell id="145" value="" style="shape=partialRectangle;connectable=0;fillColor=none;top=0;left=0;bottom=0;right=0;editable=1;overflow=hidden;" parent="144" vertex="1">
                    <mxGeometry width="30" height="30" as="geometry">
                        <mxRectangle width="30" height="30" as="alternateBounds"/>
                    </mxGeometry>
                </mxCell>
                <mxCell id="146" value="NAME" style="shape=partialRectangle;connectable=0;fillColor=none;top=0;left=0;bottom=0;right=0;align=left;spacingLeft=6;overflow=hidden;fontColor=#000000;" parent="144" vertex="1">
                    <mxGeometry x="30" width="147" height="30" as="geometry">
                        <mxRectangle width="147" height="30" as="alternateBounds"/>
                    </mxGeometry>
                </mxCell>
                <mxCell id="205" value="" style="shape=partialRectangle;collapsible=0;dropTarget=0;pointerEvents=0;fillColor=none;top=0;left=0;bottom=0;right=0;points=[[0,0.5],[1,0.5]];portConstraint=eastwest;fontColor=#000000;" vertex="1" parent="137">
                    <mxGeometry y="120" width="177" height="30" as="geometry"/>
                </mxCell>
                <mxCell id="206" value="" style="shape=partialRectangle;connectable=0;fillColor=none;top=0;left=0;bottom=0;right=0;editable=1;overflow=hidden;fontColor=#000000;" vertex="1" parent="205">
                    <mxGeometry width="30" height="30" as="geometry">
                        <mxRectangle width="30" height="30" as="alternateBounds"/>
                    </mxGeometry>
                </mxCell>
                <mxCell id="207" value="LATITUDE" style="shape=partialRectangle;connectable=0;fillColor=none;top=0;left=0;bottom=0;right=0;align=left;spacingLeft=6;overflow=hidden;fontColor=#000000;" vertex="1" parent="205">
                    <mxGeometry x="30" width="147" height="30" as="geometry">
                        <mxRectangle width="147" height="30" as="alternateBounds"/>
                    </mxGeometry>
                </mxCell>
                <mxCell id="208" value="" style="shape=partialRectangle;collapsible=0;dropTarget=0;pointerEvents=0;fillColor=none;top=0;left=0;bottom=0;right=0;points=[[0,0.5],[1,0.5]];portConstraint=eastwest;fontColor=#000000;" vertex="1" parent="137">
                    <mxGeometry y="150" width="177" height="30" as="geometry"/>
                </mxCell>
                <mxCell id="209" value="" style="shape=partialRectangle;connectable=0;fillColor=none;top=0;left=0;bottom=0;right=0;editable=1;overflow=hidden;fontColor=#000000;" vertex="1" parent="208">
                    <mxGeometry width="30" height="30" as="geometry">
                        <mxRectangle width="30" height="30" as="alternateBounds"/>
                    </mxGeometry>
                </mxCell>
                <mxCell id="210" value="LONGITUDE" style="shape=partialRectangle;connectable=0;fillColor=none;top=0;left=0;bottom=0;right=0;align=left;spacingLeft=6;overflow=hidden;fontColor=#000000;" vertex="1" parent="208">
                    <mxGeometry x="30" width="147" height="30" as="geometry">
                        <mxRectangle width="147" height="30" as="alternateBounds"/>
                    </mxGeometry>
                </mxCell>
                <mxCell id="167" style="edgeStyle=none;html=1;entryX=0;entryY=0;entryDx=0;entryDy=45.25;entryPerimeter=0;strokeColor=#000000;" parent="1" source="155" target="89" edge="1">
                    <mxGeometry relative="1" as="geometry"/>
                </mxCell>
                <mxCell id="168" style="edgeStyle=none;html=1;entryX=0;entryY=0.5;entryDx=0;entryDy=0;entryPerimeter=0;strokeColor=#000000;" parent="1" source="155" target="128" edge="1">
                    <mxGeometry relative="1" as="geometry"/>
                </mxCell>
                <mxCell id="155" value="Stage" style="rounded=0;whiteSpace=wrap;html=1;labelBackgroundColor=none;sketch=0;fillColor=#f5f5f5;fontColor=#333333;strokeColor=#000000;labelPosition=center;verticalLabelPosition=bottom;align=center;verticalAlign=top;" parent="1" vertex="1">
                    <mxGeometry x="243" y="160" width="135" height="237" as="geometry"/>
                </mxCell>
                <mxCell id="156" value="" style="aspect=fixed;perimeter=ellipsePerimeter;html=1;align=center;shadow=0;dashed=0;fontColor=#4277BB;labelBackgroundColor=#ffffff;fontSize=12;spacingTop=3;image;image=img/lib/ibm/vpc/Rules.svg;labelBorderColor=default;" parent="1" vertex="1">
                    <mxGeometry x="276.5" y="209" width="60" height="60" as="geometry"/>
                </mxCell>
                <mxCell id="157" value="Rules" style="text;html=1;strokeColor=none;fillColor=none;align=center;verticalAlign=middle;whiteSpace=wrap;rounded=0;labelBackgroundColor=none;labelBorderColor=default;fontColor=#000000;" parent="1" vertex="1">
                    <mxGeometry x="276.5" y="293.5" width="60" height="30" as="geometry"/>
                </mxCell>
                <mxCell id="171" value="Mapping II" style="rounded=0;whiteSpace=wrap;html=1;labelBackgroundColor=none;sketch=0;fillColor=#f5f5f5;fontColor=#333333;strokeColor=#000000;labelPosition=center;verticalLabelPosition=bottom;align=center;verticalAlign=top;" vertex="1" parent="1">
                    <mxGeometry x="680" y="357" width="141" height="154" as="geometry"/>
                </mxCell>
                <mxCell id="174" value="TBL_STATES" style="swimlane;childLayout=stackLayout;horizontal=1;startSize=30;horizontalStack=0;rounded=1;fontSize=14;fontStyle=0;strokeWidth=2;resizeParent=0;resizeLast=1;shadow=0;dashed=0;align=center;fontColor=#000000;fillColor=#E6E6E6;strokeColor=#666666;" vertex="1" parent="1">
                    <mxGeometry x="696.5" y="372" width="113" height="116" as="geometry"/>
                </mxCell>
                <mxCell id="175" value="ID&#10;NAME&#10;COUNTRY_CODE&#10;LATITUDE&#10;LONGITUDE" style="align=left;strokeColor=none;fillColor=none;spacingLeft=4;fontSize=12;verticalAlign=top;resizable=0;rotatable=0;part=1;fontColor=#000000;" vertex="1" parent="174">
                    <mxGeometry y="30" width="113" height="86" as="geometry"/>
                </mxCell>
                <mxCell id="176" value="" style="edgeStyle=orthogonalEdgeStyle;rounded=0;orthogonalLoop=1;jettySize=auto;html=1;" edge="1" parent="1" source="175">
                    <mxGeometry relative="1" as="geometry">
                        <mxPoint x="754.5" y="456" as="targetPoint"/>
                    </mxGeometry>
                </mxCell>
                <mxCell id="211" value="Model" style="rounded=0;whiteSpace=wrap;html=1;labelBackgroundColor=none;sketch=0;fillColor=#f5f5f5;fontColor=#333333;strokeColor=#000000;labelPosition=center;verticalLabelPosition=bottom;align=center;verticalAlign=top;" vertex="1" parent="1">
                    <mxGeometry x="8" y="101" width="205" height="329" as="geometry"/>
                </mxCell>
                <mxCell id="212" value="Positions" style="swimlane;childLayout=stackLayout;horizontal=1;startSize=30;horizontalStack=0;rounded=1;fontSize=14;fontStyle=0;strokeWidth=2;resizeParent=0;resizeLast=1;shadow=0;dashed=0;align=center;fontColor=#000000;fillColor=#E6E6E6;strokeColor=#666666;" vertex="1" parent="1">
                    <mxGeometry x="69" y="117" width="89" height="67" as="geometry"/>
                </mxCell>
                <mxCell id="213" value="latitude&#10;longitude" style="align=left;strokeColor=none;fillColor=none;spacingLeft=4;fontSize=12;verticalAlign=top;resizable=0;rotatable=0;part=1;fontColor=#000000;" vertex="1" parent="212">
                    <mxGeometry y="30" width="89" height="37" as="geometry"/>
                </mxCell>
                <mxCell id="214" style="edgeStyle=orthogonalEdgeStyle;rounded=0;orthogonalLoop=1;jettySize=auto;html=1;entryX=0.25;entryY=1;entryDx=0;entryDy=0;dashed=1;dashPattern=1 4;labelBackgroundColor=#FFFFFF;fontColor=#000000;strokeColor=#000000;" edge="1" parent="1" source="216" target="213">
                    <mxGeometry relative="1" as="geometry"/>
                </mxCell>
                <mxCell id="215" value="extends" style="edgeLabel;html=1;align=center;verticalAlign=middle;resizable=0;points=[];labelBackgroundColor=#FFFFFF;fontColor=#000000;" vertex="1" connectable="0" parent="214">
                    <mxGeometry x="-0.2242" y="-1" relative="1" as="geometry">
                        <mxPoint x="1" as="offset"/>
                    </mxGeometry>
                </mxCell>
                <mxCell id="216" value="States" style="swimlane;childLayout=stackLayout;horizontal=1;startSize=30;horizontalStack=0;rounded=1;fontSize=14;fontStyle=0;strokeWidth=2;resizeParent=0;resizeLast=1;shadow=0;dashed=0;align=center;fontColor=#000000;fillColor=#E6E6E6;strokeColor=#666666;" vertex="1" parent="1">
                    <mxGeometry x="13" y="257" width="89" height="93.5" as="geometry"/>
                </mxCell>
                <mxCell id="217" value="id&#10;name&#10;countryCode&#10;country" style="align=left;strokeColor=none;fillColor=none;spacingLeft=4;fontSize=12;verticalAlign=top;resizable=0;rotatable=0;part=1;fontColor=#000000;" vertex="1" parent="216">
                    <mxGeometry y="30" width="89" height="63.5" as="geometry"/>
                </mxCell>
                <mxCell id="218" value="extends" style="edgeStyle=orthogonalEdgeStyle;rounded=0;orthogonalLoop=1;jettySize=auto;html=1;entryX=0.25;entryY=1;entryDx=0;entryDy=0;strokeColor=#000000;dashed=1;dashPattern=1 4;fontColor=#000000;labelBackgroundColor=#FFFFFF;" edge="1" parent="1" source="219" target="213">
                    <mxGeometry relative="1" as="geometry"/>
                </mxCell>
                <mxCell id="219" value="Countries" style="swimlane;childLayout=stackLayout;horizontal=1;startSize=30;horizontalStack=0;rounded=1;fontSize=14;fontStyle=0;strokeWidth=2;resizeParent=0;resizeLast=1;shadow=0;dashed=0;align=center;fontColor=#000000;fillColor=#E6E6E6;strokeColor=#666666;" vertex="1" parent="1">
                    <mxGeometry x="131" y="259" width="76" height="115" as="geometry"/>
                </mxCell>
                <mxCell id="220" value="name&#10;iso3&#10;region&#10;subregion&#10;states" style="align=left;strokeColor=none;fillColor=none;spacingLeft=4;fontSize=12;verticalAlign=top;resizable=0;rotatable=0;part=1;fontColor=#000000;" vertex="1" parent="219">
                    <mxGeometry y="30" width="76" height="85" as="geometry"/>
                </mxCell>
            </root>
        </mxGraphModel>
    </diagram>
</mxfile>